<svg xmlns="http://www.w3.org/2000/svg" viewBox="0 0 800 800" fill="none" stroke="#000" stroke-width="10" stroke-linejoin="round" stroke-linecap="round"><circle cx="140" cy="150" r="40"/><rect x="212" y="152" width="76" height="76"/><polygon points="360,106 404,186 316,186"/><circle cx="470" cy="190" r="40"/><rect x="542" y="112" width="76" height="76"/><polygon points="690,146 734,226 646,226"/><g font-family="Arial" font-weight="700" font-size="110" fill="#000" stroke="none"><text x="230" y="430">2</text><text x="380" y="430">4</text><text x="530" y="430">8</text><text x="660" y="430">16</text></g><path d="M290 330 q 45 -60 90 0"/><path d="M370 318 l 12 14 l -18 6"/><path d="M440 330 q 45 -60 90 0"/><path d="M520 318 l 12 14 l -18 6"/><path d="M590 330 q 45 -60 90 0"/><path d="M670 318 l 12 14 l -18 6"/><polygon points="400,520 560,520 480,660"/><g font-family="Arial" font-weight="700" font-size="64" fill="#000" stroke="none"><text x="375" y="515">4</text><text x="545" y="515">5</text><text x="460" y="760">3</text><text x="462" y="600">6</text></g></svg>